<svg width="92" height="92" viewBox="0 0 92 92" fill="none" xmlns="http://www.w3.org/2000/svg">
    <path d="M82.302 42.8754L78.3536 37.3937C77.4699 36.1525 76.303 35.1399 74.9497 34.4399C73.5964 33.7399 72.0956 33.3727 70.572 33.3687H53.782V25.1654C53.782 22.6237 52.7723 20.1861 50.9751 18.3889C49.1779 16.5917 46.7403 15.582 44.1986 15.582H17.4803C14.9408 15.5891 12.5074 16.6011 10.7117 18.3967C8.916 20.1924 7.90405 22.6259 7.89697 25.1654V63.2687C7.89697 64.7937 8.50277 66.2562 9.58111 67.3346C10.6594 68.4129 12.122 69.0187 13.647 69.0187H18.3236C18.6131 71.0697 19.6335 72.9471 21.1971 74.3055C22.7607 75.664 24.7624 76.412 26.8336 76.412C28.9049 76.412 30.9065 75.664 32.4702 74.3055C34.0338 72.9471 35.0542 71.0697 35.3436 69.0187H56.657C56.9464 71.0697 57.9669 72.9471 59.5305 74.3055C61.0941 75.664 63.0957 76.412 65.167 76.412C67.2383 76.412 69.2399 75.664 70.8035 74.3055C72.3671 72.9471 73.3875 71.0697 73.677 69.0187H78.3536C79.8786 69.0187 81.3412 68.4129 82.4195 67.3346C83.4978 66.2562 84.1036 64.7937 84.1036 63.2687V48.4337C84.0943 46.4389 83.4646 44.4964 82.302 42.8754ZM26.8336 72.5837C25.8859 72.5837 24.9595 72.3027 24.1715 71.7762C23.3835 71.2496 22.7694 70.5013 22.4067 69.6257C22.044 68.7502 21.9492 67.7867 22.134 66.8572C22.3189 65.9277 22.7753 65.0739 23.4454 64.4038C24.1155 63.7337 24.9693 63.2773 25.8988 63.0924C26.8283 62.9075 27.7918 63.0024 28.6673 63.3651C29.5429 63.7278 30.2913 64.3419 30.8178 65.1299C31.3443 65.9179 31.6253 66.8443 31.6253 67.792C31.6253 69.0629 31.1205 70.2816 30.2219 71.1802C29.3232 72.0789 28.1045 72.5837 26.8336 72.5837ZM49.9486 65.1854H35.0753C34.5172 63.4378 33.418 61.913 31.9366 60.831C30.4551 59.749 28.6681 59.1659 26.8336 59.1659C24.9992 59.1659 23.2121 59.749 21.7307 60.831C20.2493 61.913 19.1501 63.4378 18.592 65.1854H13.647C13.1386 65.1854 12.6511 64.9834 12.2917 64.624C11.9322 64.2645 11.7303 63.777 11.7303 63.2687V25.1654C11.7303 23.6404 12.3361 22.1778 13.4144 21.0995C14.4928 20.0212 15.9553 19.4154 17.4803 19.4154H44.1986C45.7236 19.4154 47.1862 20.0212 48.2645 21.0995C49.3428 22.1778 49.9486 23.6404 49.9486 25.1654V65.1854ZM65.167 72.5837C64.2193 72.5837 63.2929 72.3027 62.5049 71.7762C61.7169 71.2496 61.1027 70.5013 60.7401 69.6257C60.3774 68.7502 60.2825 67.7867 60.4674 66.8572C60.6523 65.9277 61.1086 65.0739 61.7788 64.4038C62.4489 63.7337 63.3027 63.2773 64.2322 63.0924C65.1617 62.9075 66.1251 63.0024 67.0007 63.3651C67.8762 63.7278 68.6246 64.3419 69.1511 65.1299C69.6776 65.9179 69.9586 66.8443 69.9586 67.792C69.9586 69.0629 69.4538 70.2816 68.5552 71.1802C67.6566 72.0789 66.4378 72.5837 65.167 72.5837ZM80.2703 63.2687C80.2703 63.777 80.0684 64.2645 79.7089 64.624C79.3495 64.9834 78.862 65.1854 78.3536 65.1854H73.4086C72.8505 63.4378 71.7513 61.913 70.2699 60.831C68.7885 59.749 67.0015 59.1659 65.167 59.1659C63.3325 59.1659 61.5455 59.749 60.064 60.831C58.5826 61.913 57.4835 63.4378 56.9253 65.1854H53.782V37.202H70.572C71.4865 37.2082 72.3868 37.4301 73.1994 37.8497C74.012 38.2694 74.7141 38.8749 75.2486 39.617L79.197 45.0987C79.8868 46.0747 80.2614 47.2385 80.2703 48.4337V63.2687Z" fill="#890909"/>
    <path d="M69.1107 46.786H61.444C60.9357 46.786 60.4482 46.584 60.0887 46.2246C59.7293 45.8651 59.5273 45.3776 59.5273 44.8693C59.5273 44.361 59.7293 43.8735 60.0887 43.514C60.4482 43.1546 60.9357 42.9526 61.444 42.9526H69.1107C69.619 42.9526 70.1065 43.1546 70.466 43.514C70.8254 43.8735 71.0273 44.361 71.0273 44.8693C71.0273 45.3776 70.8254 45.8651 70.466 46.2246C70.1065 46.584 69.619 46.786 69.1107 46.786Z" fill="#890909"/>
</svg>
