<svg width="21" height="22" viewBox="0 0 21 22" fill="none" xmlns="http://www.w3.org/2000/svg">
    <path d="M0.892753 0.415375C0.65598 0.415375 0.428905 0.506851 0.261482 0.669679C0.0940578 0.832507 0 1.05335 0 1.28362C0 1.5139 0.0940578 1.73474 0.261482 1.89757C0.428905 2.06039 0.65598 2.15187 0.892753 2.15187H1.33199C1.52584 2.1522 1.71432 2.21388 1.86894 2.3276C2.02356 2.44132 2.13592 2.6009 2.18903 2.78222L5.02084 12.4198C5.18101 12.9636 5.5189 13.442 5.98341 13.7826C6.44793 14.1231 7.01383 14.3073 7.59555 14.3073H15.7535C16.2889 14.3074 16.812 14.1515 17.2554 13.8596C17.6987 13.5677 18.0419 13.1533 18.2407 12.6698L20.8726 6.2691C20.9808 6.00572 21.021 5.72057 20.9897 5.43859C20.9584 5.1566 20.8566 4.88636 20.6931 4.65148C20.5296 4.41661 20.3095 4.22425 20.052 4.09122C19.7944 3.95819 19.5072 3.88854 19.2156 3.88836H4.37092L3.9049 2.30468C3.74515 1.76076 3.40767 1.28221 2.94348 0.941353C2.47929 0.600497 1.91363 0.415869 1.33199 0.415375H0.892753ZM6.7385 11.9405L4.88158 5.62486H19.2156L16.582 12.0256C16.5157 12.1865 16.4013 12.3245 16.2537 12.4217C16.106 12.5188 15.9318 12.5708 15.7535 12.5708H7.59555C7.40169 12.5705 7.21321 12.5088 7.05859 12.3951C6.90397 12.2814 6.79162 12.1218 6.7385 11.9405ZM8.03478 21.2533C8.38649 21.2533 8.73476 21.1859 9.05971 21.055C9.38465 20.9241 9.6799 20.7323 9.9286 20.4904C10.1773 20.2485 10.3746 19.9614 10.5092 19.6454C10.6438 19.3293 10.713 18.9906 10.713 18.6486C10.713 18.3065 10.6438 17.9678 10.5092 17.6518C10.3746 17.3358 10.1773 17.0486 9.9286 16.8067C9.6799 16.5649 9.38465 16.373 9.05971 16.2421C8.73476 16.1112 8.38649 16.0438 8.03478 16.0438C7.32446 16.0438 6.64323 16.3183 6.14096 16.8067C5.63869 17.2952 5.35652 17.9578 5.35652 18.6486C5.35652 19.3394 5.63869 20.0019 6.14096 20.4904C6.64323 20.9789 7.32446 21.2533 8.03478 21.2533ZM8.03478 19.5168C7.79801 19.5168 7.57093 19.4253 7.40351 19.2625C7.23608 19.0997 7.14203 18.8788 7.14203 18.6486C7.14203 18.4183 7.23608 18.1975 7.40351 18.0346C7.57093 17.8718 7.79801 17.7803 8.03478 17.7803C8.27155 17.7803 8.49863 17.8718 8.66605 18.0346C8.83348 18.1975 8.92753 18.4183 8.92753 18.6486C8.92753 18.8788 8.83348 19.0997 8.66605 19.2625C8.49863 19.4253 8.27155 19.5168 8.03478 19.5168ZM15.1768 21.2533C15.5285 21.2533 15.8768 21.1859 16.2017 21.055C16.5267 20.9241 16.8219 20.7323 17.0706 20.4904C17.3193 20.2485 17.5166 19.9614 17.6512 19.6454C17.7858 19.3293 17.8551 18.9906 17.8551 18.6486C17.8551 18.3065 17.7858 17.9678 17.6512 17.6518C17.5166 17.3358 17.3193 17.0486 17.0706 16.8067C16.8219 16.5649 16.5267 16.373 16.2017 16.2421C15.8768 16.1112 15.5285 16.0438 15.1768 16.0438C14.4665 16.0438 13.7853 16.3183 13.283 16.8067C12.7807 17.2952 12.4985 17.9578 12.4985 18.6486C12.4985 19.3394 12.7807 20.0019 13.283 20.4904C13.7853 20.9789 14.4665 21.2533 15.1768 21.2533ZM15.1768 19.5168C14.94 19.5168 14.713 19.4253 14.5455 19.2625C14.3781 19.0997 14.2841 18.8788 14.2841 18.6486C14.2841 18.4183 14.3781 18.1975 14.5455 18.0346C14.713 17.8718 14.94 17.7803 15.1768 17.7803C15.4136 17.7803 15.6407 17.8718 15.8081 18.0346C15.9755 18.1975 16.0696 18.4183 16.0696 18.6486C16.0696 18.8788 15.9755 19.0997 15.8081 19.2625C15.6407 19.4253 15.4136 19.5168 15.1768 19.5168Z" fill="currentColor"/>
</svg>
