<svg width="68" height="58" viewBox="0 0 68 58" fill="none" xmlns="http://www.w3.org/2000/svg">
    <path d="M49.4543 0.254395C42.9634 0.254395 37.3193 3.15508 33.9997 8.01611C30.68 3.15508 25.036 0.254395 18.5451 0.254395C13.6282 0.260069 8.91442 2.19816 5.4377 5.64351C1.96098 9.08885 0.005238 13.7601 -0.000488281 18.6326C-0.000488281 27.5766 5.62499 36.8852 16.7214 46.2948C21.8061 50.5884 27.2986 54.3839 33.1219 57.628C33.3917 57.7717 33.6933 57.8469 33.9997 57.8469C34.306 57.8469 34.6076 57.7717 34.8775 57.628C40.7008 54.3839 46.1932 50.5884 51.2779 46.2948C62.3744 36.8852 67.9998 27.5766 67.9998 18.6326C67.9941 13.7601 66.0384 9.08885 62.5617 5.64351C59.0849 2.19816 54.3711 0.260069 49.4543 0.254395ZM33.9997 53.8911C28.9275 50.9904 3.70862 35.6998 3.70862 18.6326C3.71271 14.7345 5.27715 10.9972 8.05863 8.24078C10.8401 5.4844 14.6114 3.93408 18.5451 3.93003C24.8135 3.93003 30.0773 7.24729 32.2842 12.5892C32.4239 12.9263 32.6616 13.2146 32.9671 13.4175C33.2725 13.6204 33.632 13.7287 33.9997 13.7287C34.3674 13.7287 34.7268 13.6204 35.0323 13.4175C35.3377 13.2146 35.5754 12.9263 35.7151 12.5892C37.9221 7.24729 43.1859 3.93003 49.4543 3.93003C53.3879 3.93408 57.1592 5.4844 59.9407 8.24078C62.7222 10.9972 64.2866 14.7345 64.2907 18.6326C64.2907 35.6998 39.0719 50.9904 33.9997 53.8911Z" fill="#890909"/>
</svg>
