<svg width="21" height="19" viewBox="0 0 21 19" fill="none" xmlns="http://www.w3.org/2000/svg">
    <path d="M15.1875 0.309723C13.2516 0.309723 11.5566 1.14225 10.5 2.54949C9.44344 1.14225 7.74844 0.309723 5.8125 0.309723C4.27146 0.31146 2.79404 0.924427 1.70436 2.01414C0.614681 3.10386 0.00173694 4.58134 0 6.12243C0 12.6852 9.73031 17.9972 10.1447 18.2166C10.2539 18.2754 10.376 18.3061 10.5 18.3061C10.624 18.3061 10.7461 18.2754 10.8553 18.2166C11.2697 17.9972 21 12.6852 21 6.12243C20.9983 4.58134 20.3853 3.10386 19.2956 2.01414C18.206 0.924427 16.7285 0.31146 15.1875 0.309723ZM10.5 16.6978C8.78813 15.7003 1.5 11.156 1.5 6.12243C1.50149 4.9791 1.95632 3.88303 2.76475 3.07457C3.57317 2.26611 4.66921 1.81127 5.8125 1.80978C7.63594 1.80978 9.16687 2.78106 9.80625 4.34112C9.86276 4.47868 9.95888 4.59634 10.0824 4.67914C10.2059 4.76195 10.3513 4.80616 10.5 4.80616C10.6487 4.80616 10.7941 4.76195 10.9176 4.67914C11.0411 4.59634 11.1372 4.47868 11.1937 4.34112C11.8331 2.77825 13.3641 1.80978 15.1875 1.80978C16.3308 1.81127 17.4268 2.26611 18.2353 3.07457C19.0437 3.88303 19.4985 4.9791 19.5 6.12243C19.5 11.1486 12.21 15.6993 10.5 16.6978Z" fill="currentColor"/>
</svg>
