<svg width="73" height="67" viewBox="0 0 73 67" fill="none" xmlns="http://www.w3.org/2000/svg">
    <path d="M13.5154 61.7563C16.4171 63.2982 19.6554 64.102 22.9431 64.0964C34.0304 64.0964 43.0184 55.1308 43.0184 44.0711C43.0184 33.0114 34.0304 24.0458 22.9431 24.0458C11.8559 24.0458 2.86791 33.0114 2.86791 44.0711C2.86791 47.4754 3.71872 50.6775 5.21767 53.4811C5.5674 54.1342 5.64964 54.8971 5.4471 55.6095L3.08778 63.8809L11.3817 61.5293C12.0956 61.3267 12.8604 61.4081 13.5154 61.7563ZM22.9431 66.9571C19.1845 66.9625 15.4826 66.0427 12.1656 64.2795L3.04572 66.8675C2.63633 66.9835 2.20331 66.9884 1.79141 66.8816C1.37951 66.7748 1.00367 66.5602 0.702736 66.26C0.4018 65.9598 0.186682 65.5849 0.0796142 65.174C-0.0274539 64.7632 -0.0225883 64.3312 0.0937078 63.9228L2.68628 54.8256C0.917344 51.5159 -0.00535787 47.8218 2.34035e-05 44.0711C2.34035e-05 31.4323 10.2728 21.1851 22.9431 21.1851C35.6135 21.1851 45.8862 31.4323 45.8862 44.0711C45.8862 56.7099 35.6135 66.9571 22.9431 66.9571ZM14.3395 39.78C14.3395 39.4006 14.4905 39.0368 14.7595 38.7685C15.0284 38.5003 15.3931 38.3496 15.7734 38.3496H30.1129C30.4932 38.3496 30.8579 38.5003 31.1268 38.7685C31.3957 39.0368 31.5468 39.4006 31.5468 39.78C31.5468 40.1593 31.3957 40.5232 31.1268 40.7914C30.8579 41.0596 30.4932 41.2103 30.1129 41.2103H15.7734C15.3931 41.2103 15.0284 41.0596 14.7595 40.7914C14.4905 40.5232 14.3395 40.1593 14.3395 39.78ZM14.3395 48.3622C14.3395 47.9829 14.4905 47.6191 14.7595 47.3508C15.0284 47.0826 15.3931 46.9319 15.7734 46.9319H24.3771C24.7574 46.9319 25.1221 47.0826 25.391 47.3508C25.66 47.6191 25.811 47.9829 25.811 48.3622C25.811 48.7416 25.66 49.1054 25.391 49.3737C25.1221 49.6419 24.7574 49.7926 24.3771 49.7926H15.7734C15.3931 49.7926 15.0284 49.6419 14.7595 49.3737C14.4905 49.1054 14.3395 48.7416 14.3395 48.3622Z" fill="#890909"/>
    <path d="M28.033 33.999C27.3378 34.5784 26.2949 36.502 27.6854 39.5612" stroke="#FFF4F7" stroke-width="2.78107"/>
    <path d="M42.17 57.9991C42.6271 58.7802 44.3528 60.1255 47.5991 59.2573" stroke="#FFF4F7" stroke-width="2.78107"/>
    <path d="M59.4855 40.9497C56.5839 42.4916 53.3456 43.2954 50.0578 43.2897C38.9706 43.2897 29.9826 34.3241 29.9826 23.2645C29.9826 12.2048 38.9706 3.23917 50.0578 3.23917C61.1451 3.23917 70.1331 12.2048 70.1331 23.2645C70.1331 26.6688 69.2823 29.8709 67.7833 32.6744C67.4336 33.3276 67.3513 34.0905 67.5539 34.8028L69.9132 43.0742L61.6193 40.7227C60.9054 40.5201 60.1405 40.6014 59.4855 40.9497ZM50.0578 46.1505C53.8165 46.1558 57.5183 45.2361 60.8354 43.4728L69.9553 46.0609C70.3646 46.1769 70.7977 46.1817 71.2096 46.0749C71.6215 45.9681 71.9973 45.7535 72.2982 45.4534C72.5992 45.1532 72.8143 44.7783 72.9214 44.3674C73.0284 43.9565 73.0236 43.5246 72.9073 43.1162L70.3147 34.019C72.0836 30.7093 73.0063 27.0152 73.001 23.2645C73.001 10.6256 62.7282 0.378418 50.0578 0.378418C37.3875 0.378418 27.1147 10.6256 27.1147 23.2645C27.1147 35.9033 37.3875 46.1505 50.0578 46.1505ZM58.6615 18.9733C58.6615 18.594 58.5104 18.2301 58.2415 17.9619C57.9726 17.6937 57.6079 17.543 57.2276 17.543H42.8881C42.5078 17.543 42.1431 17.6937 41.8742 17.9619C41.6052 18.2301 41.4542 18.594 41.4542 18.9733C41.4542 19.3527 41.6052 19.7165 41.8742 19.9848C42.1431 20.253 42.5078 20.4037 42.8881 20.4037H57.2276C57.6079 20.4037 57.9726 20.253 58.2415 19.9848C58.5104 19.7165 58.6615 19.3527 58.6615 18.9733ZM58.6615 27.5556C58.6615 27.1762 58.5104 26.8124 58.2415 26.5442C57.9726 26.2759 57.6079 26.1252 57.2276 26.1252H48.6239C48.2436 26.1252 47.8789 26.2759 47.6099 26.5442C47.341 26.8124 47.19 27.1762 47.19 27.5556C47.19 27.935 47.341 28.2988 47.6099 28.567C47.8789 28.8353 48.2436 28.986 48.6239 28.986H57.2276C57.6079 28.986 57.9726 28.8353 58.2415 28.567C58.5104 28.2988 58.6615 27.935 58.6615 27.5556Z" fill="#890909"/>
    <path fill-rule="evenodd" clip-rule="evenodd" d="M59.4855 40.9497C56.5839 42.4916 53.3456 43.2954 50.0578 43.2897C38.9706 43.2897 29.9826 34.3241 29.9826 23.2645C29.9826 12.2048 38.9706 3.23917 50.0578 3.23917C61.1451 3.23917 70.1331 12.2048 70.1331 23.2645C70.1331 26.6688 69.2823 29.8709 67.7833 32.6744C67.4336 33.3276 67.3513 34.0905 67.5539 34.8028L69.9132 43.0742L61.6193 40.7227C60.9054 40.5201 60.1405 40.6014 59.4855 40.9497ZM58.2415 17.9619C58.5104 18.2301 58.6615 18.594 58.6615 18.9733C58.6615 19.3527 58.5104 19.7165 58.2415 19.9848C57.9726 20.253 57.6079 20.4037 57.2276 20.4037H42.8881C42.5078 20.4037 42.1431 20.253 41.8742 19.9848C41.6052 19.7165 41.4542 19.3527 41.4542 18.9733C41.4542 18.594 41.6052 18.2301 41.8742 17.9619C42.1431 17.6937 42.5078 17.543 42.8881 17.543H57.2276C57.6079 17.543 57.9726 17.6937 58.2415 17.9619ZM58.2415 26.5442C58.5104 26.8124 58.6615 27.1762 58.6615 27.5556C58.6615 27.935 58.5104 28.2988 58.2415 28.567C57.9726 28.8353 57.6079 28.986 57.2276 28.986H48.6239C48.2436 28.986 47.8789 28.8353 47.6099 28.567C47.341 28.2988 47.19 27.935 47.19 27.5556C47.19 27.1762 47.341 26.8124 47.6099 26.5442C47.8789 26.2759 48.2436 26.1252 48.6239 26.1252H57.2276C57.6079 26.1252 57.9726 26.2759 58.2415 26.5442Z" fill="#FFF4F7"/>
</svg>
