<svg width="47" height="46" viewBox="0 0 47 46" fill="none" xmlns="http://www.w3.org/2000/svg">
    <path d="M39.5227 6.81459C37.4298 4.70051 34.9369 3.02432 32.1894 1.88377C29.4419 0.743225 26.4948 0.161159 23.52 0.171523C11.0556 0.171523 0.896983 10.3302 0.896983 22.7945C0.896983 26.7895 1.94709 30.6703 3.91034 34.0946L0.714355 45.8284L12.6993 42.6781C16.0094 44.4815 19.7304 45.4403 23.52 45.4403C35.9843 45.4403 46.1429 35.2816 46.1429 22.8173C46.1429 16.7678 43.7916 11.0835 39.5227 6.81459ZM23.52 41.6051C20.1413 41.6051 16.8312 40.692 13.932 38.9798L13.2472 38.5689L6.12469 40.4409L8.01945 33.501L7.56288 32.7933C5.68581 29.7959 4.6891 26.3312 4.6865 22.7945C4.6865 12.4304 13.133 3.98387 23.4971 3.98387C28.5194 3.98387 33.2449 5.94711 36.7833 9.50835C38.5353 11.2524 39.9238 13.3268 40.8682 15.6114C41.8126 17.8959 42.2941 20.3453 42.2849 22.8173C42.3306 33.1814 33.8841 41.6051 23.52 41.6051ZM33.8384 27.5428C33.2677 27.2689 30.4826 25.8992 29.9804 25.6937C29.4553 25.5111 29.0901 25.4198 28.702 25.9676C28.3139 26.5384 27.241 27.8167 26.9214 28.182C26.6018 28.5701 26.2594 28.6157 25.6887 28.319C25.1179 28.045 23.2917 27.4287 21.1458 25.5111C19.4565 24.0044 18.3379 22.1553 17.9955 21.5846C17.6759 21.0139 17.9498 20.7171 18.2466 20.4203C18.4977 20.1692 18.8173 19.7583 19.0912 19.4387C19.3652 19.1191 19.4793 18.868 19.6619 18.5027C19.8446 18.1147 19.7533 17.7951 19.6163 17.5211C19.4793 17.2472 18.3379 14.4621 17.8813 13.3207C17.4248 12.2249 16.9454 12.3619 16.6029 12.3391H15.5072C15.1191 12.3391 14.5256 12.476 14.0005 13.0468C13.4983 13.6175 12.0373 14.9872 12.0373 17.7722C12.0373 20.5573 14.069 23.2511 14.3429 23.6163C14.6169 24.0044 18.3379 29.7115 23.9993 32.1541C25.3462 32.7477 26.3963 33.0901 27.2182 33.3412C28.565 33.775 29.7978 33.7065 30.7794 33.5695C31.8752 33.4097 34.1352 32.1998 34.5917 30.8758C35.0711 29.5517 35.0711 28.4331 34.9113 28.182C34.7515 27.9309 34.4091 27.8167 33.8384 27.5428Z" fill="white"/>
</svg>
