<svg width="48" height="48" viewBox="0 0 48 48" fill="none" xmlns="http://www.w3.org/2000/svg">
    <path d="M3 0C1.34315 0 0 1.34315 0 3V45C0 46.6569 1.34315 48 3 48H45C46.6569 48 48 46.6569 48 45V3C48 1.34315 46.6569 0 45 0H3ZM21.3076 12.835C22.6667 12.8209 23.996 12.9716 24.6445 12.9902C27.0485 13.0594 27.4731 14.2753 27.4423 15.2754C27.3974 16.7401 26.455 22.9358 28.2012 23.54C30.7455 22.1795 32.4518 17.9537 33.6943 15.2754C34.3228 13.9207 34.2234 13.8534 35.6718 13.8516L41.4257 13.8428C42.8114 13.841 42.7573 13.7924 43.2012 14.3584C44.2336 15.6747 39.9433 21.1502 38.5576 22.6641C36.0004 25.458 37.4924 26.5399 37.9043 26.9238C39.8126 28.7032 41.6566 30.5483 42.8027 32.25C43.7138 33.6029 43.3375 34.8625 42.1786 34.9102L36.0087 35.165C33.9613 35.2492 30.7777 31.579 30.2695 30.7793C29.8586 30.1197 27.878 29.293 27.6914 30.9784L27.4306 33.331C27.2412 35.0126 25.9996 34.9734 25.0195 35.0155C18.2328 35.3075 15.9215 32.7236 12.5038 28.91C9.999 25.3676 7.60864 21.8048 5.62788 17.537C5.035 16.2594 4.72096 15.3223 4.64056 14.329C5.6372 13.55 9.13548 13.8855 11.4843 13.8338C12.1268 13.8197 12.5602 14.1878 12.8994 14.9208C14.2226 17.7813 15.6657 20.5903 17.5752 23.0741C18.4067 23.84 19.1418 24.1216 19.5088 22.5644C19.7218 22.5448 19.7047 19.9658 19.7168 18.0204C19.725 16.6846 19.5681 15.0827 17.3056 14.3436C17.7633 13.144 19.5602 12.8531 21.3076 12.835Z" fill="white"/>
</svg>
